<mxfile host="Electron" modified="2023-08-18T09:51:07.536Z" agent="Mozilla/5.0 (Windows NT 10.0; Win64; x64) AppleWebKit/537.36 (KHTML, like Gecko) draw.io/21.4.0 Chrome/112.0.5615.204 Electron/24.5.1 Safari/537.36" etag="98OkYN_s75sGq_ouhrKs" version="21.4.0" type="device">
  <diagram name="Page-1" id="lylsVwSWBb1AbmLA2EGd">
    <mxGraphModel dx="1276" dy="585" grid="1" gridSize="10" guides="1" tooltips="1" connect="1" arrows="1" fold="1" page="1" pageScale="1" pageWidth="827" pageHeight="1169" math="0" shadow="0">
      <root>
        <mxCell id="0" />
        <mxCell id="1" parent="0" />
        <mxCell id="7efEjGHA50Ozj_-Taf_o-1" value="&lt;span style=&quot;font-size: 18px;&quot;&gt;&lt;b&gt;Receivable add&lt;/b&gt;&lt;/span&gt;" style="text;html=1;strokeColor=none;fillColor=none;align=center;verticalAlign=middle;whiteSpace=wrap;rounded=0;" parent="1" vertex="1">
          <mxGeometry x="40" y="60" width="180" height="40" as="geometry" />
        </mxCell>
        <mxCell id="7efEjGHA50Ozj_-Taf_o-2" value="" style="ellipse;fillColor=strokeColor;html=1;" parent="1" vertex="1">
          <mxGeometry x="364" y="130" width="30" height="30" as="geometry" />
        </mxCell>
        <mxCell id="7efEjGHA50Ozj_-Taf_o-5" value="Subscription &lt;br&gt;exists?" style="html=1;whiteSpace=wrap;aspect=fixed;shape=isoRectangle;" parent="1" vertex="1">
          <mxGeometry x="304" y="191" width="150" height="90" as="geometry" />
        </mxCell>
        <mxCell id="7efEjGHA50Ozj_-Taf_o-6" value="ReceivablesQueue &lt;br&gt;exists?" style="html=1;whiteSpace=wrap;aspect=fixed;shape=isoRectangle;" parent="1" vertex="1">
          <mxGeometry x="304" y="321" width="150" height="90" as="geometry" />
        </mxCell>
        <mxCell id="7efEjGHA50Ozj_-Taf_o-7" value="" style="ellipse;html=1;shape=endState;fillColor=strokeColor;" parent="1" vertex="1">
          <mxGeometry x="364" y="760" width="30" height="30" as="geometry" />
        </mxCell>
        <mxCell id="7efEjGHA50Ozj_-Taf_o-8" value="Create ReceivablesQueue" style="rounded=1;whiteSpace=wrap;html=1;" parent="1" vertex="1">
          <mxGeometry x="489" y="336" width="120" height="60" as="geometry" />
        </mxCell>
        <mxCell id="7efEjGHA50Ozj_-Taf_o-9" value="" style="endArrow=classic;html=1;rounded=0;exitX=0.5;exitY=1;exitDx=0;exitDy=0;exitPerimeter=0;entryX=0.502;entryY=0.019;entryDx=0;entryDy=0;entryPerimeter=0;" parent="1" target="7efEjGHA50Ozj_-Taf_o-5" edge="1">
          <mxGeometry width="50" height="50" relative="1" as="geometry">
            <mxPoint x="379" y="161" as="sourcePoint" />
            <mxPoint x="379" y="190" as="targetPoint" />
          </mxGeometry>
        </mxCell>
        <mxCell id="7efEjGHA50Ozj_-Taf_o-10" value="" style="endArrow=classic;html=1;rounded=0;exitX=0.989;exitY=0.497;exitDx=0;exitDy=0;exitPerimeter=0;entryX=0;entryY=0.5;entryDx=0;entryDy=0;" parent="1" source="7efEjGHA50Ozj_-Taf_o-6" target="7efEjGHA50Ozj_-Taf_o-8" edge="1">
          <mxGeometry width="50" height="50" relative="1" as="geometry">
            <mxPoint x="209" y="290" as="sourcePoint" />
            <mxPoint x="259" y="240" as="targetPoint" />
          </mxGeometry>
        </mxCell>
        <mxCell id="7efEjGHA50Ozj_-Taf_o-11" value="Receivable&lt;br&gt;exists ?" style="html=1;whiteSpace=wrap;aspect=fixed;shape=isoRectangle;" parent="1" vertex="1">
          <mxGeometry x="304" y="450" width="150" height="90" as="geometry" />
        </mxCell>
        <mxCell id="7efEjGHA50Ozj_-Taf_o-12" value="" style="endArrow=classic;html=1;rounded=0;entryX=0.5;entryY=0.022;entryDx=0;entryDy=0;entryPerimeter=0;exitX=0.499;exitY=0.981;exitDx=0;exitDy=0;exitPerimeter=0;" parent="1" source="7efEjGHA50Ozj_-Taf_o-6" target="7efEjGHA50Ozj_-Taf_o-11" edge="1">
          <mxGeometry width="50" height="50" relative="1" as="geometry">
            <mxPoint x="379" y="410" as="sourcePoint" />
            <mxPoint x="378.5799999999999" y="450" as="targetPoint" />
          </mxGeometry>
        </mxCell>
        <mxCell id="7efEjGHA50Ozj_-Taf_o-13" value="No" style="text;html=1;strokeColor=none;fillColor=none;align=center;verticalAlign=middle;whiteSpace=wrap;rounded=0;" parent="1" vertex="1">
          <mxGeometry x="439" y="340" width="60" height="30" as="geometry" />
        </mxCell>
        <mxCell id="7efEjGHA50Ozj_-Taf_o-14" value="" style="endArrow=classic;html=1;rounded=0;exitX=0.002;exitY=0.5;exitDx=0;exitDy=0;exitPerimeter=0;edgeStyle=orthogonalEdgeStyle;" parent="1" source="7efEjGHA50Ozj_-Taf_o-5" edge="1">
          <mxGeometry width="50" height="50" relative="1" as="geometry">
            <mxPoint x="369" y="400" as="sourcePoint" />
            <mxPoint x="379" y="740" as="targetPoint" />
            <Array as="points">
              <mxPoint x="219" y="236" />
              <mxPoint x="219" y="740" />
            </Array>
          </mxGeometry>
        </mxCell>
        <mxCell id="7efEjGHA50Ozj_-Taf_o-15" value="Create receivable" style="rounded=1;whiteSpace=wrap;html=1;" parent="1" vertex="1">
          <mxGeometry x="319" y="570" width="120" height="60" as="geometry" />
        </mxCell>
        <mxCell id="7efEjGHA50Ozj_-Taf_o-16" value="" style="endArrow=classic;html=1;rounded=0;entryX=0.5;entryY=0;entryDx=0;entryDy=0;" parent="1" target="7efEjGHA50Ozj_-Taf_o-7" edge="1">
          <mxGeometry width="50" height="50" relative="1" as="geometry">
            <mxPoint x="379" y="720" as="sourcePoint" />
            <mxPoint x="419" y="420" as="targetPoint" />
          </mxGeometry>
        </mxCell>
        <mxCell id="7efEjGHA50Ozj_-Taf_o-17" value="No" style="text;html=1;strokeColor=none;fillColor=none;align=center;verticalAlign=middle;whiteSpace=wrap;rounded=0;" parent="1" vertex="1">
          <mxGeometry x="229" y="211" width="60" height="30" as="geometry" />
        </mxCell>
        <mxCell id="7efEjGHA50Ozj_-Taf_o-18" value="" style="endArrow=classic;html=1;rounded=0;entryX=0.5;entryY=0.014;entryDx=0;entryDy=0;entryPerimeter=0;exitX=0.5;exitY=0.981;exitDx=0;exitDy=0;exitPerimeter=0;" parent="1" source="7efEjGHA50Ozj_-Taf_o-5" target="7efEjGHA50Ozj_-Taf_o-6" edge="1">
          <mxGeometry width="50" height="50" relative="1" as="geometry">
            <mxPoint x="379" y="280" as="sourcePoint" />
            <mxPoint x="378.58000000000004" y="321" as="targetPoint" />
          </mxGeometry>
        </mxCell>
        <mxCell id="7efEjGHA50Ozj_-Taf_o-19" value="" style="endArrow=classic;html=1;rounded=0;exitX=0.5;exitY=1;exitDx=0;exitDy=0;edgeStyle=orthogonalEdgeStyle;" parent="1" source="7efEjGHA50Ozj_-Taf_o-8" edge="1">
          <mxGeometry width="50" height="50" relative="1" as="geometry">
            <mxPoint x="499" y="390" as="sourcePoint" />
            <mxPoint x="379" y="430" as="targetPoint" />
            <Array as="points">
              <mxPoint x="551" y="396" />
              <mxPoint x="551" y="430" />
            </Array>
          </mxGeometry>
        </mxCell>
        <mxCell id="7efEjGHA50Ozj_-Taf_o-20" value="Yes" style="text;html=1;strokeColor=none;fillColor=none;align=center;verticalAlign=middle;whiteSpace=wrap;rounded=0;" parent="1" vertex="1">
          <mxGeometry x="343" y="411" width="32" height="30" as="geometry" />
        </mxCell>
        <mxCell id="7efEjGHA50Ozj_-Taf_o-21" value="" style="endArrow=classic;html=1;rounded=0;exitX=0.5;exitY=1;exitDx=0;exitDy=0;exitPerimeter=0;entryX=0.502;entryY=0.019;entryDx=0;entryDy=0;entryPerimeter=0;" parent="1" edge="1">
          <mxGeometry width="50" height="50" relative="1" as="geometry">
            <mxPoint x="378.58000000000004" y="538" as="sourcePoint" />
            <mxPoint x="378.58000000000004" y="570" as="targetPoint" />
          </mxGeometry>
        </mxCell>
        <mxCell id="7efEjGHA50Ozj_-Taf_o-22" value="No" style="text;html=1;strokeColor=none;fillColor=none;align=center;verticalAlign=middle;whiteSpace=wrap;rounded=0;" parent="1" vertex="1">
          <mxGeometry x="329" y="540" width="60" height="30" as="geometry" />
        </mxCell>
        <mxCell id="7efEjGHA50Ozj_-Taf_o-23" value="" style="endArrow=classic;html=1;rounded=0;exitX=1.002;exitY=0.499;exitDx=0;exitDy=0;exitPerimeter=0;edgeStyle=orthogonalEdgeStyle;" parent="1" source="7efEjGHA50Ozj_-Taf_o-11" edge="1">
          <mxGeometry width="50" height="50" relative="1" as="geometry">
            <mxPoint x="499" y="390" as="sourcePoint" />
            <mxPoint x="379" y="740" as="targetPoint" />
            <Array as="points">
              <mxPoint x="550" y="495" />
              <mxPoint x="550" y="740" />
            </Array>
          </mxGeometry>
        </mxCell>
        <mxCell id="7efEjGHA50Ozj_-Taf_o-24" value="Update&lt;br&gt;Subscription" style="rounded=1;whiteSpace=wrap;html=1;" parent="1" vertex="1">
          <mxGeometry x="319" y="660" width="120" height="60" as="geometry" />
        </mxCell>
        <mxCell id="7efEjGHA50Ozj_-Taf_o-25" value="" style="endArrow=classic;html=1;rounded=0;exitX=0.5;exitY=1;exitDx=0;exitDy=0;exitPerimeter=0;entryX=0.496;entryY=0;entryDx=0;entryDy=0;entryPerimeter=0;" parent="1" target="7efEjGHA50Ozj_-Taf_o-24" edge="1">
          <mxGeometry width="50" height="50" relative="1" as="geometry">
            <mxPoint x="378.58000000000004" y="630" as="sourcePoint" />
            <mxPoint x="378.58000000000004" y="662" as="targetPoint" />
          </mxGeometry>
        </mxCell>
        <mxCell id="7efEjGHA50Ozj_-Taf_o-26" value="Yes" style="text;html=1;strokeColor=none;fillColor=none;align=center;verticalAlign=middle;whiteSpace=wrap;rounded=0;" parent="1" vertex="1">
          <mxGeometry x="439" y="470" width="60" height="30" as="geometry" />
        </mxCell>
        <mxCell id="7efEjGHA50Ozj_-Taf_o-27" value="Yes" style="text;html=1;strokeColor=none;fillColor=none;align=center;verticalAlign=middle;whiteSpace=wrap;rounded=0;" parent="1" vertex="1">
          <mxGeometry x="348" y="281" width="27" height="30" as="geometry" />
        </mxCell>
      </root>
    </mxGraphModel>
  </diagram>
</mxfile>
